<svg fill="none" height="279" viewBox="0 0 242 279" width="242" xmlns="http://www.w3.org/2000/svg"><path d="m203.322 1.15405c-4.246.29974-8.143.67441-12.689 1.27388-6.544.84926-7.118 1.04909-6.544 2.47284.225.54952.575.82428 1.224.99913 1.224.32472 16.461 2.3979 21.132 2.87249 2.073.19982 6.569.54952 9.991.74934 8.692.52457 13.463.89917 13.588 1.02407.175.1499.075.2248-2.922 1.5737-4.347 1.9982-5.046 2.223-10.741 3.6718-5.87 1.4737-8.418 2.5227-10.966 4.4461-2.972 2.248-4.92 5.4202-5.395 8.7673-.325 2.2231.15 6.1696 1.474 11.9146 3.472 15.1617 3.722 16.4356 4.146 21.3813.5 5.5452-.374 12.8138-2.423 20.657-1.523 5.8948-3.596 10.191-7.218 15.0368-5.57 7.4436-11.84 12.2146-19.633 14.9366-6.345 2.198-12.764 3.372-26.227 4.746-10.366 1.049-14.488 1.624-20.158 2.748-14.037 2.822-23.029 8.617-27.426 17.709-2.173 4.471-3.022 8.793-2.7972 13.988.2498 5.57 1.4992 11.34 4.9212 22.73 6.219 20.732 8.067 30.449 8.067 42.113-.024 9.142-1.273 15.387-4.571 22.806-2.497 5.62-5.62 10.141-9.9658 14.412-5.4203 5.345-11.2402 8.792-19.9576 11.815-10.8405 3.771-22.1556 5.52-47.3836 7.293-11.0153.775-15.3116 1.224-19.358 1.998-3.22223.65-11.49 3.098-11.49 3.422 0 .425 1.52367.15 4.62096-.774 7.39354-2.223 10.69064-2.648 28.84974-3.772 19.0834-1.174 29.0746-2.422 38.5164-4.77 18.6837-4.671 30.0489-13.189 37.0429-27.751 3.497-7.319 4.945-13.538 5.295-22.68.4-11.415-1.798-23.854-7.793-43.712-3.797-12.564-4.871-17.66-5.046-23.48-.1-3.197-.025-4.271.375-6.244 2.298-11.04 10.666-18.659 24.404-22.181 6.144-1.573 11.315-2.348 24.453-3.672 9.592-.974 12.489-1.348 17.135-2.273 5.695-1.124 11.041-2.847 14.962-4.82 6.644-3.372 13.963-10.866 18.334-18.7589 3.647-6.6193 6.42-18.6837 6.42-27.9756 0-5.8948-.625-9.5916-3.947-23.8541-1.698-7.1938-2.198-10.8905-1.798-12.9387.449-2.323 1.573-4.1964 3.646-6.1447 2.648-2.4728 4.821-3.4719 10.966-5.0456 5.92-1.4986 7.094-1.8733 10.416-3.372 5.67-2.5478 7.193-3.5219 7.193-4.57102 0-.27476-.224-.62445-.499-.77432-.924-.49956-5.395-.99913-13.613-1.49869-9.492-.5745-16.236-1.22393-22.98-2.22306l-4.746-.67441 2.748-.29973c11.764-1.29887 21.531-1.32385 30.473-.02498 6.369.89921 12.914 2.62271 13.363 3.47196.15.29974.225 7.26865.2 18.28405-.075 17.9343 0 19.3081.824 19.3081.8 0 1.199-8.1679 1.299-25.3528.05-14.71219.15-13.98782-1.773-14.96197-2.373-1.19895-8.518-2.64768-15.037-3.52192-4.421-.59948-15.561-.874236-20.982-.49956z" fill="#15803d"/></svg>