<svg fill="none" height="291" viewBox="0 0 332 291" width="332" xmlns="http://www.w3.org/2000/svg"><path d="m139.353 1.24388c-6.28.75872-12.013 1.72819-13.235 2.31831-.717.3372-2.824.92732-4.637 1.26452-7.039 1.43314-8.894 2.65551-10.538 6.95489-.8 2.0233-.716 3.8779.464 8.0087.632 2.2762.927 2.8663 4.131 8.4302.843 1.5174 2.192 4.0043 2.993 5.5639 1.475 2.9506 3.456 5.0581 6.533 7.0392 1.012.6323 2.234 1.6018 2.698 2.1497 1.349 1.5175 3.161 2.234 22.761 9.484 23.689 8.7674 28.368 10.5377 43.795 16.6918 12.013 4.8052 14.331 5.8589 12.898 5.8589-.885 0-15.427 3.9201-22.972 6.1541-19.432 5.8168-49.317 17.9141-73.343 29.6739-31.2757 15.343-52.5198 32.709-66.7246 54.544-5.7326 8.809-10.2006 18.378-16.5232 35.449-4.5102 12.181-6.7442 17.745-13.2776 32.877-8.43015 19.643-11.76007 29.169-13.53041 38.442-1.053773 5.606-.716566 8.472 1.47528 12.477 1.81249 3.288 4.2994 5.774 5.81683 5.774 1.34883 0 2.3605-1.559 6.7863-10.327 4.9317-9.736 7.8822-14.963 15.7645-27.819 7.2921-11.845 10.8328-18.083 16.9868-29.548 11.2121-20.949 16.0173-27.904 26.3022-38.104 17.7877-17.62 37.3879-28.916 77.8109-44.891 33.973-13.404 51.508-19.01 69.549-22.34 6.112-1.138 16.607-2.487 16.902-2.192s-23.984 22.129-36.713 33.046c-5.943 5.101-7.334 6.913-9.568 12.646-1.138 2.824-1.349 3.962-1.518 8.135-.126 4.088-.042 5.226.675 7.376 1.138 3.33 3.92 8.725 4.72 9.105 8.515 4.046 15.048 4.383 20.865 1.011 4.047-2.318 15.259-11.971 30.981-26.597 21.16-19.684 27.272-24.827 49.612-41.94l2.993-2.318 3.962.337c7.629.674 10.495.59 12.35-.38 2.613-1.391 4.215-3.456 5.69-7.46.506-1.265 1.349-2.951 1.897-3.794.717-1.096.97-1.981.927-3.372-.084-1.6439.085-2.1075 1.054-2.9084 1.602-1.3067 2.909-6.997 3.077-13.3618.085-3.2035.422-5.9012 1.012-8.0087.59-2.1076.885-4.468.885-7.0814 0-5.9854-.885-7.2921-6.112-9.3575-1.391-.5479-2.824-1.2224-3.161-1.5174-1.939-1.5175-6.07-3.077-32.456-12.1816-18.083-6.2384-28.747-10.032-70.814-25.1642-44.09-15.84872-54.965-19.01004-68.664-20.14812-5.395-.463657-6.575-.463657-10.58 0z" fill="#000"/></svg>