<svg fill="none" height="116" viewBox="0 0 734 116" width="734" xmlns="http://www.w3.org/2000/svg"><path d="m550.531.391487c-3.001.122521-14.334.490074-25.116.857623-77.125 2.63413-188.309 10.29149-244.116 16.90739-37.123 4.3494-74.613 10.5366-107.387 17.7651-14.334 3.1242-62.055 14.5183-75.7769 18.0713-43.9838 11.3942-74.1844 21.1956-89.62161 29.1592-4.77818 2.4504-5.57454 3.1242-6.73846 5.5133-1.163919 2.3891-1.225178 2.9404-.49007 5.5133.36755 1.5927 2.14406 5.452 3.79804 8.6373 2.51161 4.533 3.85931 6.249 6.861 8.699 3.0629 2.512 4.2881 3.063 7.106 3.43 7.7799.981 26.4025-1.715 132.38-19.0511 45.699-7.4735 53.479-8.6374 72.898-10.9653 40.063-4.8394 74.062-7.106 154.985-10.4752 114.064-4.717 172.689-5.0845 254.837-1.7765 13.66.6126 35.407 1.0414 48.394 1.1026 21.196.0613 23.952-.0612 27.199-1.0414 5.146-1.5927 9.25-5.8808 11.945-12.3743 1.103-2.6953 2.88-6.2484 3.86-7.8411 1.531-2.4503 1.776-3.308 1.47-5.2682-.306-2.1441-.123-2.6954 1.776-4.962 1.164-1.3477 2.267-3.553 2.512-4.7782.184-1.2252.735-3.6755 1.164-5.3295 1.225-4.5332 1.715-10.2302 1.225-14.4571-.612-5.2682-2.328-7.106-7.718-8.08614-3.308-.61258-4.35-1.10265-5.636-2.63412-.919-1.10266-2.573-2.38909-3.676-2.87917-5.268-2.51161-34.243-3.553006-103.956-3.736783-31.181-.122513-59.115-.122513-62.178 0z" fill="#16a34a"/></svg>