<svg fill="none" height="1509" viewBox="0 0 1360 1509" width="1360" xmlns="http://www.w3.org/2000/svg"><path clip-rule="evenodd" d="m624.837 2.69268c3.361-.05898 6.015-.41282 7.785-1.12052 5.248-2.064107 10.379-.766667 12.738 3.12565 1.239 2.12308 3.48 3.12565 8.197 3.65642 4.483.4718 5.308 1.00257 6.724 4.01027 1.533 3.2436 1.651 5.0128 3.066 41.1642.649 16.6898 1.593 37.154 2.064 45.4104.472 8.2569 1.18 21.8209 1.475 30.0769 1.946 47.828 4.305 75.193 10.91 127.68 3.597 28.367 8.905 73.954 10.085 86.398.589 6.369.825 12.502.589 15.923-.471 7.431-2.241 14.449-4.187 16.513-1.179 1.238-1.415 1.946-1.12 3.361.236 1.357 0 2.359-1.18 4.128-.825 1.239-2.182 4.011-3.007 6.075-1.711 4.423-4.954 8.02-7.962 8.846-3.067.885-3.244.826-6.487-2.064-1.652-1.416-3.716-3.008-4.659-3.48-2.536-1.356-6.311-5.956-8.434-10.32-1.061-2.123-2.948-5.603-4.246-7.726-8.61-14.213-14.036-31.02-24.179-75.192-15.393-67.172-22.529-107.039-28.308-158.052-3.126-27.895-3.657-35.857-5.721-87.1055-1.179-29.5462-1.179-31.2565-.235-34.2052 1.533-4.659 3.892-8.7282 5.602-9.5539 1.651-.82563 8.964-2.71281 16.1-4.1282 2.536-.53077 5.662-1.47436 6.959-2.12308 1.769-.94359 3.598-1.23847 7.431-1.29744zm412.993 242.79832c3.01-.236 6.49-.767 7.67-1.238 4.78-1.711 9.26-.767 13.03 2.83 1.6 1.593 2.83 2.183 5.07 2.477 3.31.413 4.9 1.77 6.02 5.013.94 2.831.77 13.741-.24 18.341-.08.36-.17.774-.27 1.23v.001c-.49 2.237-1.2 5.451-1.79 7.851-.65 2.89-1.95 6.9-2.95 8.906-.94 2.005-1.77 4.069-1.77 4.659 0 1.887-2.36 7.725-4.42 10.792-1.12 1.71-2.77 4.895-3.6 7.077-2.71 7.313-5.78 12.031-14.39 22.292-7.55 9.023-23.47 29.9-39.16 51.308-3.341 4.517-6.59 8.97-8.399 11.451l-.021.028-.005.008c-.634.869-1.088 1.491-1.303 1.782-2.595 3.421-15.569 22.175-34.441 49.775-7.608 11.087-12.974 19.402-23.413 36.623-16.749 27.6-28.72 42.167-34.559 42.167-.531 0-2.005-.885-3.243-1.946-1.239-1.003-3.185-2.595-4.306-3.48-1.061-.943-2.771-3.185-3.774-5.013-.528-1.057-1.482-2.872-2.53-4.865l-.021-.04-.009-.017-.001-.003-.016-.03c-.81-1.54-1.672-3.181-2.436-4.658-6.133-11.735-7.608-23.825-4.777-39.218 2.654-14.389 10.734-39.513 18.931-59.269 6.074-14.567 16.277-35.385 21.054-43.051 3.951-6.311 19.403-28.957 23.649-34.559.943-1.298 3.361-4.601 5.307-7.254 7.785-10.852 32.731-43.936 39.16-51.957 9.494-11.854 14.094-16.572 18.343-18.813 3.65-1.946 10.79-4.128 17.69-5.367 2.12-.353 5.31-1.297 7.08-2.064 2.12-.884 5.13-1.474 8.84-1.769zm-780.818 142.659c-1.12.413-3.892.767-6.192.885-2.477.059-5.072.531-6.605 1.238-1.416.59-5.131 1.652-8.316 2.359-11.028 2.3-11.618 2.654-14.035 8.965l-1.534 4.01 1.239 5.72c1.356 6.311 3.538 11.382 8.374 19.344 1.769 2.949 4.364 7.608 5.721 10.38 3.184 6.428 5.484 9.082 10.851 12.679 2.359 1.592 5.779 4.246 7.549 5.839 3.125 2.889 5.484 4.305 23 13.859 16.159 8.787 34.5 20.11 73.718 45.41 22.115 14.272 45.528 28.308 65.462 39.218 35.266 19.285 54.61 28.603 70.061 33.556 14.154 4.542 16.395 4.247 19.875-2.535 1.12-2.3 2.064-4.6 2.064-5.072 0-.531.354-1.534.825-2.241 1.298-1.946 2.183-8.198 1.475-10.675-.413-1.592-2.595-3.833-10.144-10.497-9.554-8.492-29.546-24.887-41.164-33.793-33.144-25.418-47.474-36.564-61.569-47.71-45.942-36.387-59.801-47.062-77.552-59.682-15.628-11.087-30.667-20.936-35.326-23.059-4.424-1.979-5.573-2.58-13.203-6.565l-.302-.158c-3.833-2.064-4.777-2.3-8.256-2.241-2.182 0-4.895.354-6.016.766zm886.388 278.478c41.11-8.315 84.33-14.095 118.54-15.864 8.85-.472 66.17-.354 69.18.177 4.12.649 8.02 2.536 11.26 5.367 1.65 1.474 3.24 2.3 5.07 2.594 6.02.944 9.73 3.834 11.56 8.965 1 2.948 1.06 12.738 0 16.453-.41 1.593-1.12 4.424-1.47 6.311-.42 1.828-1.36 4.128-2.07 5.013-.88 1.061-1.47 2.653-1.65 4.718-.18 2.064-.94 4.069-2.24 6.192-1.06 1.651-2.89 5.308-4.07 8.079-4.24 9.849-9.2 15.511-16.81 19.167-6.54 3.126-10.08 3.48-33.97 3.008-50.48-.885-86.81 2.654-142.42 13.918-32.08 6.487-34.26 6.782-67.52 9.849-35.15 3.243-48.07 3.833-81.27 3.774-25.774-.118-30.787-.236-33.499-1.062-3.362-.943-13.152-7.254-20.406-13.033-2.182-1.769-4.305-3.185-4.776-3.185-2.242 0-6.252-6.723-5.19-8.728.825-1.592 2.654-1.828 10.615-1.474l6.841.354 2.064-2.359c1.121-1.298 3.362-4.011 4.954-6.016 8.316-10.556 20.464-16.925 52.787-27.895 14.8-4.954 53.66-16.631 72.3-21.702 6.19-1.652 13.44-3.657 16.22-4.423 7.66-2.183 18.16-4.6 35.97-8.198zm-884.618 127.68c-35.267.943-66.228 3.656-104.385 9.141-33.969 4.895-49.421 7.961-75.2515 14.979-35.3257 9.672-64.0463 18.636-69.64888 21.821-3.30257 1.887-5.83848 5.249-7.96156 10.556-1.061544 2.654-1.356417 4.364-1.297442 8.611.058974 7.195 1.710262 11.853 7.312842 20.936 1.47436 2.418 3.53844 6.192 4.54104 8.374 2.1821 4.659 6.0744 9.023 10.7334 12.09 1.8282 1.179 4.7769 3.538 6.6051 5.189 8.7282 7.962 13.3283 7.726 41.2232-2.123 43.2288-15.215 57.6768-19.284 96.3058-27.069 35.384-7.077 67.938-11.972 111.874-16.808 56.085-6.133 87.754-11.323 108.513-17.81 7.785-2.418 10.321-3.597 13.27-6.192 2.359-2.005 6.782-10.439 6.782-12.798 0-.825.531-2.064 1.238-2.772 1.475-1.592 3.067-10.084 2.536-13.623-.413-2.948-2.359-5.13-5.426-6.133-1.238-.354-3.361-1.415-4.835-2.359-3.48-2.123-8.847-3.362-17.87-4.069-8.256-.59-99.962-.59-124.259.059zm716.54 175.803c-1.415-2.536-1.415-2.595-.295-3.421 1.298-.943 4.187-1.12 4.718-.236.236.354 1.357 1.003 2.536 1.534 1.828.707 2.772.766 6.016.177 12.683-2.241 19.223-.944 35.563 7.018 15.86 7.725 32.08 16.925 63.51 35.977 28.37 17.22 47.77 29.78 85.22 55.26 8.44 5.72 21.76 14.5 29.67 19.52 13.27 8.43 20.05 12.56 54.67 33.14 6.84 4.01 15.15 9.14 18.57 11.32 3 1.91 9.38 5.9 15.04 9.44l.09.05 2.27 1.42c3.12 1.91 6.09 3.75 8.37 5.16l.02.02h.01c2.22 1.38 3.78 2.35 4.16 2.55 2.18 1.41 5.31 6.19 6.72 10.26 1.89 5.72 1.77 14.69-.41 23.94-1.47 6.26-1.89 7.26-3.71 8.97-1.95 1.89-2.01 2.06-1.65 4.89.35 2.66.23 3.19-1.36 5.37-.94 1.3-2.6 4.54-3.66 7.14-3.01 7.55-6.19 11.56-11.73 14.74-3.19 1.83-8.55 2.77-12.03 2.12-2.42-.41-7.97-3.54-22.77-12.79-19.46-12.15-25.77-16.52-51.01-35.51-35.68-26.89-51.19-39.39-92.3-74.31-10.55-8.96-28.42-23.94-39.8-33.32-38.57-31.72-51.08-42.87-73.428-65.16-12.149-12.151-14.213-14.451-16.454-18.579-4.187-7.608-4.305-7.844-4.718-11.088-.236-1.71-1.061-4.246-1.828-5.602zm-417.245 17.221c-.943.412-3.42.766-5.484.825s-4.482.472-5.308 1.003c-.884.472-3.597 1.238-6.015 1.71-7.077 1.415-8.788 1.946-11.382 3.597-3.48 2.241-44.113 43.173-56.439 56.913-5.721 6.31-14.567 16.39-19.697 22.41-20.995 24.47-26.952 31.37-34.56 39.81-11.912 13.27-14.448 15.92-46.589 49.24-26.067 27.01-30.549 32.38-35.739 42.64-5.721 11.26-7.254 19.11-7.313 36.27 0 12.32 1.062 15.8 10.203 32.73 3.951 7.31 6.015 9.97 8.964 11.44 1.002.53 3.067 2.12 4.6 3.6 2.772 2.47 3.008 2.59 5.544 2.24 5.366-.71 9.2-4.66 13.741-13.92 1.297-2.77 2.948-5.96 3.597-7.08s1.769-3.24 2.418-4.71c1.946-4.19 3.774-6.2 17.751-19.35 21.585-20.34 45.293-46.41 67.998-74.72 3.951-4.89 14.272-18.28 22.941-29.78 20.051-26.48 27.777-36.39 41.872-53.67 25.713-31.49 33.851-42.7 37.508-51.42.707-1.71 2.241-4.66 3.361-6.49 1.18-2.01 2.123-4.31 2.182-5.6.059-1.24.708-3.25 1.416-4.43 2.182-3.65 4.246-12.85 4.246-19.22 0-7.61-.826-8.731-7.195-9.792-1.415-.236-2.949-1.18-4.541-2.713-2.595-2.595-4.718-3.008-8.08-1.533zm191.962 79.088c2.123-.59 5.308-1.24 7.077-1.48 5.897-.76 6.9-.65 8.669.83.944.76 2.772 1.71 4.07 2.06 2.653.71 5.071 3.07 8.079 7.73 9.79 15.57 18.518 44.17 24.887 81.68 2.477 14.45 4.423 29.13 9.436 69.59 5.013 40.93 7.49 58.91 13.859 100.55 11.5 75.43 14.744 106.15 13.093 122.96-.767 7.61-3.893 20.35-6.016 24.47-.943 1.77-1.769 4.37-1.946 5.78-.177 1.6-1.179 3.9-2.654 6.2-1.297 2-3.125 5.48-4.01 7.78-2.772 7.02-5.662 10.79-9.967 12.74-4.128 1.89-5.838 1.53-9.908-2.18-2.005-1.83-4.6-3.78-5.72-4.37-4.541-2.36-7.431-5.66-10.969-12.56-1.829-3.6-4.246-8.02-5.367-9.73-1.062-1.71-1.946-3.18-1.946-3.3 0-.06-1.357-2.54-2.949-5.43-6.546-11.67-8.256-20.34-11.205-56.85-1.651-19.99-3.951-43.58-8.551-86.69-5.662-53.08-8.021-81.39-12.385-145.96-.826-12.33-2.418-33.56-3.538-47.18-3.657-45.35-4.129-54.02-3.244-57.5.413-1.48.767-3.72.826-5.02l.059-2.35 3.243-.36c1.769-.18 4.954-.82 7.077-1.41z" fill="#000" fill-rule="evenodd"/></svg>